<svg xmlns="http://www.w3.org/2000/svg" xmlns:xlink="http://www.w3.org/1999/xlink" width="48" height="48" viewBox="0 0 48 48">
  <defs>
    <path id="email_icon-a" d="M29,0 L3,0 C1.343125,0 0,1.343125 0,3 L0,21 C0,22.656875 1.343125,24 3,24 L29,24 C30.656875,24 32,22.656875 32,21 L32,3 C32,1.343125 30.656875,0 29,0 Z M29,3 L29,5.5503125 C27.598625,6.6915 25.3645,8.466 20.5883125,12.2059375 C19.53575,13.033875 17.45075,15.0229375 16,14.99975 C14.5495,15.0231875 12.4638125,13.0335625 11.4116875,12.2059375 C6.63625,8.4665625 4.4015625,6.6916875 3,5.5503125 L3,3 L29,3 Z M3,21 L3,9.399875 C4.432125,10.5405625 6.4630625,12.14125 9.558625,14.56525 C10.9246875,15.6405625 13.317,18.014375 16,17.9999375 C18.6698125,18.014375 21.0318125,15.675 22.4408125,14.56575 C25.5363125,12.1418125 27.5678125,10.5406875 29,9.399875 L29,21 L3,21 Z"/>
  </defs>
  <g fill="none" fill-rule="evenodd" transform="translate(8 12)">
    <mask id="email_icon-b" fill="#fff">
      <use xlink:href="#email_icon-a"/>
    </mask>
    <g fill="#FFF" mask="url(#email_icon-b)">
      <rect width="48" height="48" transform="translate(-8 -12)"/>
    </g>
  </g>
</svg>
