<svg xmlns="http://www.w3.org/2000/svg" width="29" height="28" viewBox="0 0 29 28">
  <defs>
    <linearGradient id="cloudicon-a" x1=".019%" y1="50%" y2="50%">
      <stop offset="0%" stop-color="#005BFA"/>
      <stop offset="26%" stop-color="#007EF8"/>
      <stop offset="49%" stop-color="#0095F7"/>
      <stop offset="63%" stop-color="#009EF6"/>
      <stop offset="78%" stop-color="#00B9F3"/>
      <stop offset="100%" stop-color="#00E7EE"/>
    </linearGradient>
  </defs>
  <g fill="none" fill-rule="evenodd">
    <circle cx="15" cy="14" r="14" fill="url(#cloudicon-a)" fill-rule="nonzero"/>
    <path fill="#FFF" fill-rule="nonzero" d="M0 15.5696932L16.2991138 15.5696932C16.7387783 17.2110103 18.1102932 18.2242196 19.5314188 17.9575649 20.9525444 17.6909101 22 16.2238141 22 14.5 22 12.7761859 20.9525444 11.3090899 19.5314188 11.0424351 18.1102932 10.7757804 16.7387783 11.7889897 16.2991138 13.4303068L0 13.4303068 0 15.5696932zM17.2897532 14.5C17.2877337 13.6288452 17.7254596 12.8427034 18.3974856 12.5105476 19.0695116 12.1783919 19.8424187 12.366166 20.3534453 12.9857388 20.864472 13.6053115 21.0121629 14.5336776 20.7271997 15.3351113 20.4422365 16.136545 19.7811937 16.6519357 19.0543297 16.6393863 18.076452 16.6258377 17.2896879 15.6719587 17.2897532 14.5zM0 12L7.04385798 12 11.7537184 10.0273933C12.6899349 11.1866272 14.3041717 11.4690697 15.5578898 10.6930079 16.8116078 9.9169461 17.3313084 8.31357872 16.7826358 6.914452 16.2339632 5.51532528 14.7803739 4.73725688 13.3570526 5.08082673 11.9337313 5.42439658 10.9647035 6.78725084 11.0734053 8.29258038L6.3635448 10.2597826 0 10.2597826 0 12zM12.3293681 8.75735893C11.9563744 7.80063776 12.4038849 6.71267778 13.3295908 6.32567881 14.2552966 5.93867984 15.3096287 6.39878218 15.6861097 7.35404542 16.0625907 8.30930865 15.6190522 9.39900197 14.6947646 9.78959967 14.2478844 9.97631037 13.7474545 9.97185499 13.3037577 9.7772154 12.8600609 9.58257581 12.5095137 9.21372707 12.3293681 8.75195453L12.3293681 8.75735893zM0 18.742093L6.31475296 18.742093 11.0508177 20.7114155C10.9425567 22.2154452 11.9155682 23.5765844 13.3440674 23.919427 14.7725667 24.2622696 16.2311803 23.4847253 16.7818125 22.0868655 17.3324447 20.6890057 16.8111301 19.0870801 15.5531482 18.3113545 14.2951663 17.5356289 12.6751143 17.8170962 11.7349159 18.9747327L6.99885119 17 0 17 0 18.742093zM14.6923252 19.2181929C15.3766926 19.5037374 15.8263588 20.1850184 15.8316342 20.9443391 15.8369096 21.7036598 15.3967552 22.3914753 14.7164251 22.6870417 14.036095 22.982608 13.2495772 22.8277147 12.7236427 22.2945919 12.1977083 21.7614692 12.0359377 20.9551133 12.3137683 20.2515462 12.4947887 19.7893037 12.8475986 19.4203407 13.2940518 19.2263811 13.7405051 19.0324215 14.2437519 19.0294745 14.6923252 19.2181929z"/>
  </g>
</svg>
