<svg xmlns="http://www.w3.org/2000/svg" width="80" height="80" viewBox="0 0 80 80">
  <defs>
    <linearGradient id="customersatisfaction_circle-a" x1=".072%" x2="99.928%" y1="52.742%" y2="47.262%">
      <stop offset="0%" stop-color="#005BFA"/>
      <stop offset="26%" stop-color="#007EF8"/>
      <stop offset="49%" stop-color="#0095F7"/>
      <stop offset="63%" stop-color="#009EF6"/>
      <stop offset="78%" stop-color="#00B9F3"/>
      <stop offset="100%" stop-color="#00E7EE"/>
    </linearGradient>
  </defs>
  <g fill="none" fill-rule="evenodd">
    <circle cx="39.882" cy="39.882" r="39.882" fill="url(#customersatisfaction_circle-a)" fill-rule="nonzero"/>
    <polygon fill="#FFF" points="58.511 33.138 56.803 31.652 54.532 32.172 42.9 67.132"/>
    <polygon fill="#FFF" points="29.762 29.846 27.544 29.198 26.059 31.028 35.959 60.624"/>
    <path fill="#FFF" d="M71.4869198 51.7772152L66.9198312 48.5164557 67.0109705 42.9097046C67.016802 42.5792888 66.8344006 42.2742586 66.5405618 42.1230391 66.2467229 41.9718195 65.8924902 42.0006796 65.6270042 42.1974684L61.1172996 45.535865 55.8075949 43.7198312C55.4951078 43.6126196 55.1488507 43.6922018 54.9145303 43.925089 54.6802099 44.1579763 54.598505 44.5037387 54.7037975 44.8168776L56.4860759 50.1333333 53.1105485 54.6160338C52.9108676 54.8800774 52.8788679 55.2347467 53.0280628 55.5302673 53.1772576 55.8257879 53.4816349 56.0106358 53.8126582 56.0067511L59.4227848 55.9561181 62.6464135 60.5468354C62.8356217 60.818168 63.1626674 60.9582843 63.4896261 60.9080933 63.8165848 60.8579023 64.0865439 60.6261405 64.185654 60.3105485L65.8734177 54.9603376 71.2236287 53.3333333C71.5497502 53.2433598 71.794257 52.9726626 71.8506952 52.6390982 71.9071334 52.3055338 71.7652896 51.969467 71.4869198 51.7772152zM64.92827 53.4312236C64.6552089 53.5160927 64.4409089 53.7291321 64.3544304 54.0016878L63.0616034 58.1063291 60.5907173 54.5822785C60.425462 54.3496473 60.1570761 54.2123043 59.87173 54.214346L55.564557 54.2548523 58.150211 50.8118143C58.3219281 50.5837616 58.3699343 50.2856175 58.278481 50.0151899L56.9113924 45.9341772 60.985654 47.32827C61.25679 47.4189016 61.5550454 47.3723385 61.785654 47.2033755L65.2455696 44.6413502 65.1746835 48.9451477C65.1701784 49.2311978 65.3064499 49.5012172 65.5392405 49.6675105L69.0464135 52.1721519 64.92827 53.4312236zM67.2607595 21.8464135L61.8869198 20.2531646 60.1586498 14.9164557C60.0579413 14.6005802 59.7860035 14.369727 59.457969 14.3216344 59.1299345 14.2735419 58.8031751 14.416621 58.6160338 14.6902954L55.4295359 19.3046414 49.8194093 19.3046414C49.4889286 19.3052743 49.1872809 19.4929113 49.0406309 19.7890729 48.8939809 20.0852344 48.9275997 20.438885 49.1274262 20.7021097L52.5367089 25.1544304 50.7983122 30.4877637C50.6958468 30.8018862 50.7807181 31.1469411 51.0172036 31.3776936 51.2536891 31.6084461 51.6007225 31.6848255 51.9122363 31.5746835L57.2016878 29.7046414 61.7383966 33.0092827C62.0074235 33.2057214 62.3649375 33.2314907 62.6593553 33.0756646 62.9537732 32.9198386 63.1335116 32.6097187 63.1223629 32.2767932L62.9805907 26.6666667 67.5105485 23.3822785C67.7794708 23.1905207 67.9161722 22.8626918 67.8631517 22.536687 67.8101311 22.2106823 67.5765886 21.9430689 67.2607595 21.8464135zM61.5932489 25.5324895C61.360741 25.7002076 61.2256698 25.9716124 61.2320675 26.2582278L61.3367089 30.5586498 57.8565401 28.0168776C57.6257596 27.8474552 57.3256433 27.8044006 57.0565401 27.9021097L53.0059072 29.3299578 54.3459916 25.2455696C54.4367697 24.9741366 54.3861204 24.6753057 54.2109705 24.4489451L51.5780591 21.0295359 55.8852321 21.0295359C56.1710558 21.0306773 56.4389525 20.8904106 56.6008439 20.6548523L59.0481013 17.1105485 60.3746835 21.2084388C60.4626883 21.4798264 60.6785045 21.6905943 60.9518987 21.7721519L65.0801688 23.0075949 61.5932489 25.5324895zM32.6177215 16.2666667L27.0852321 17.2151899 23.1729958 13.1881857C22.942857 12.9504763 22.5975442 12.8643717 22.2827413 12.9661987 21.9679383 13.0680256 21.7384672 13.3400511 21.6911392 13.6675105L20.8776371 19.2202532 15.8649789 21.7012658C15.5690524 21.8484659 15.3819555 22.1504974 15.3819555 22.4810127 15.3819555 22.8115279 15.5690524 23.1135594 15.8649789 23.2607595L20.8945148 25.7451477 21.6978903 31.2945148C21.7441558 31.6225573 21.9732135 31.8956089 22.288212 31.9982166 22.6032105 32.1008244 22.9491454 32.015071 23.1797468 31.7772152L27.0953586 27.7637131 32.6244726 28.7156118C32.9506298 28.7732068 33.2811201 28.6400651 33.4762658 28.3724573 33.6714114 28.1048495 33.6971549 27.7494795 33.542616 27.4565401L30.9164557 22.4911392 33.5324895 17.5291139C33.6854879 17.2363549 33.6596847 16.8822352 33.4658634 16.6147475 33.2720421 16.3472598 32.9435701 16.2124536 32.6177215 16.2666667zM29.164557 22.0827004C29.033037 22.3367289 29.033037 22.6387985 29.164557 22.892827L31.1662447 26.7037975 26.9232068 25.971308C26.6412979 25.9242907 26.3541515 26.0174873 26.1535865 26.221097L23.142616 29.3029536 22.52827 25.043038C22.4868807 24.7598003 22.3089491 24.5149867 22.0523207 24.3881857L18.1940928 22.4810127 22.0556962 20.5907173C22.3190113 20.4614765 22.4983872 20.2070426 22.5316456 19.9156118L23.1561181 15.6624473 26.156962 18.7476793C26.357527 18.9512891 26.6446734 19.0444857 26.9265823 18.9974684L31.1729958 18.2751055 29.164557 22.0827004zM51.2540084 33.5459916L45.9443038 31.7299578 44.4253165 26.3291139C44.3371672 26.0095013 44.0745582 25.7680811 43.7486749 25.7070677 43.4227916 25.6460543 43.0906315 25.7761191 42.892827 26.0421941L39.5172996 30.5316456 33.9105485 30.3122363C33.5805315 30.3010047 33.2725479 30.4773842 33.1152293 30.7677086 32.9579106 31.058033 32.9783197 31.4123591 33.1679325 31.6827004L36.3983122 36.2632911 34.464135 41.5189873C34.3510376 41.8294009 34.423323 42.1770819 34.6507745 42.4166928 34.8782261 42.6563037 35.221675 42.7465818 35.5375527 42.649789L40.8978903 40.9924051 45.2860759 44.4691983C45.5468652 44.6733189 45.9008592 44.7118602 46.199465 44.568644 46.4980707 44.4254278 46.6896057 44.125242 46.6936709 43.7940928L46.7746835 38.1839662 51.4531646 35.1054852C51.7354558 34.9237496 51.888144 34.5959313 51.8456145 34.2629037 51.803085 33.929876 51.5729123 33.6509512 51.2540084 33.5459916zM45.4447257 37.0092827C45.2054694 37.1678551 45.0601378 37.434507 45.0565401 37.721519L44.9957806 42.0253165 41.6202532 39.3552743C41.3961159 39.1788462 41.0997878 39.1233635 40.8270042 39.2067511L36.7122363 40.4793249 38.2042194 36.428692C38.3048101 36.1601271 38.2656077 35.8591535 38.0995781 35.6253165L35.6118143 32.121519 39.9156118 32.2902954C40.1993618 32.3044754 40.4719539 32.1782754 40.6447257 31.9527426L43.2270042 28.5063291 44.3949367 32.6514768C44.4716096 32.9264039 44.6786099 33.1460261 44.9485232 33.2388186L49.0261603 34.6329114 45.4447257 37.0092827zM24.0371308 35.4666667L19.0616034 38.0691983 14.0995781 35.443038C13.8045734 35.2792028 13.4413318 35.301302 13.1683645 35.499692 12.8953973 35.698082 12.7622417 36.0367595 12.8270042 36.3679325L13.7654008 41.8970464 9.74852321 45.8126582C9.5108138 46.042797 9.42470929 46.3881098 9.52653622 46.7029127 9.62836315 47.0177157 9.90038864 47.2471868 10.2278481 47.2945148L15.7772152 48.1046414 18.2514768 53.1375527C18.3986769 53.4334792 18.7007083 53.6205762 19.0312236 53.6205762 19.3617389 53.6205762 19.6637703 53.4334792 19.8109705 53.1375527L22.2987342 48.1080169 27.8514768 47.3080169C28.1815742 47.2672419 28.4592979 47.0413233 28.5664163 46.7264383 28.6735347 46.4115533 28.5911872 46.0631448 28.3544304 45.8295359L24.3375527 41.9105485 25.292827 36.3848101C25.3494865 36.0596194 25.2166853 35.730451 24.9502263 35.5356207 24.6837672 35.3407904 24.3298271 35.314062 24.0371308 35.4666667zM22.5485232 42.0658228C22.4994624 42.3472506 22.591543 42.6348449 22.7949367 42.835443L25.8767932 45.843038 21.6033755 46.457384C21.3201566 46.4963829 21.0747822 46.6734572 20.9485232 46.9299578L19.0379747 50.7915612 17.1476793 46.9198312C17.0199707 46.6639698 16.7756153 46.4863713 16.492827 46.4438819L12.2329114 45.8227848 15.3181435 42.8151899C15.5234233 42.6169606 15.6180844 42.3304529 15.571308 42.0489451L14.8523207 37.8059072 18.6565401 39.8312236C18.9089548 39.9644565 19.2108764 39.9644565 19.4632911 39.8312236L23.2911392 37.8227848 22.5485232 42.0658228z"/>
    <polygon fill="#FFF" points="42.386 43.949 40.665 42.657 38.454 43.332 40.979 72.817"/>
    <polygon fill="#FFF" points="59.622 58.63 58.383 57.468 55.635 57.165 42.386 71.146"/>
    <polygon fill="#FFF" points="25.242 49.046 23.281 49.242 22.538 50.927 39.271 74.643"/>
  </g>
</svg>
