<svg xmlns="http://www.w3.org/2000/svg" width="80" height="80" viewBox="0 0 80 80">
  <defs>
    <linearGradient id="engagement_circle-a" x1=".072%" x2="99.928%" y1="52.742%" y2="47.262%">
      <stop offset="0%" stop-color="#005BFA"/>
      <stop offset="26%" stop-color="#007EF8"/>
      <stop offset="49%" stop-color="#0095F7"/>
      <stop offset="63%" stop-color="#009EF6"/>
      <stop offset="78%" stop-color="#00B9F3"/>
      <stop offset="100%" stop-color="#00E7EE"/>
    </linearGradient>
  </defs>
  <g fill="none">
    <circle cx="39.882" cy="39.882" r="39.882" fill="url(#engagement_circle-a)"/>
    <path fill="#FFF" d="M56.0337553,48.2194093 L56.0337553,59.6962025 C56.0245964,60.0624456 55.7250074,60.3545449 55.3586498,60.3544304 L24.2160338,60.3544304 C23.8562502,60.3455428 23.5666935,60.0559861 23.5578059,59.6962025 L23.5578059,16.6683544 C23.5576914,16.3019969 23.8497907,16.0024079 24.2160338,15.9932489 L48.5603376,15.9932489 L48.6987342,19.3687764 C48.7168675,21.4338568 50.3806169,23.1065995 52.4455696,23.135865 L56.0337553,23.2911392 L56.0337553,27.0514768 C56.8885541,27.4311058 57.689782,27.9213756 58.4168776,28.5097046 C58.6767932,28.7223629 58.9265823,28.9485232 59.1662447,29.1848101 L59.1662447,20.2835443 L52.5434599,20.0270042 L52.4962025,20.0270042 C52.1233521,20.0270042 51.821097,19.7247492 51.821097,19.3518987 L51.5578059,12.8911392 L24.2160338,12.8911392 C22.1292679,12.8948194 20.4364426,14.581615 20.4253165,16.6683544 L20.4253165,59.692827 C20.4290323,61.7848413 22.1240195,63.4798285 24.2160338,63.4835443 L55.3586498,63.4835443 C57.4519822,63.4816869 59.149022,61.7861569 59.1527426,59.692827 L59.1527426,44.3578059 L56.0337553,48.2194093 Z"/>
    <path fill="#FFF" d="M57.6101266,36.1181435 C57.4824501,34.8270228 56.9277123,33.6153899 56.0337553,32.6751055 L56.0337553,40.7763713 L56.3308017,40.4084388 C57.3109421,39.2054417 57.7713366,37.6614804 57.6101266,36.1181435 Z"/>
    <path fill="#FFF" d="M61.4345992,35.7097046 C61.0257381,31.8006388 58.3032691,28.5223515 54.535804,27.4024541 C50.7683389,26.2825566 46.6971839,27.5414058 44.2194093,30.5924051 L43.750211,31.1696203 L43.1527426,30.7172996 C38.9824102,27.3346138 32.8594792,27.9731276 29.4767934,32.14346 C26.0941076,36.3137924 26.7326212,42.4367234 30.9029536,45.8194093 L45.4177215,57.5966245 C46.0601733,58.116953 47.0026295,58.0187805 47.5240506,57.3772152 L59.3012658,42.8624473 C60.9381769,40.8583031 61.7062461,38.2830837 61.4345992,35.7097046 Z M56.9924051,40.9586498 L55.5814346,42.6970464 L46.156962,54.3156118 L32.7966245,43.4801688 C29.9070334,41.1377357 29.4634741,36.8963422 31.8059072,34.0067511 C34.1483402,31.11716 38.3897338,30.6736007 41.2793249,33.0160338 L43.021097,34.4270042 C43.3283146,34.6779615 43.7228249,34.7962417 44.1174372,34.7557037 C44.5120494,34.7151657 44.8742722,34.5191472 45.1240506,34.2109705 L46.5350211,32.4691983 C48.0503096,30.5999606 50.4477203,29.6811105 52.8241719,30.05877 C55.2006235,30.4364294 57.1950764,32.053223 58.0562395,34.3001202 C58.9174025,36.5470174 58.5144446,39.0826611 56.9991561,40.9518987 L56.9924051,40.9586498 Z"/>
  </g>
</svg>
