<svg xmlns="http://www.w3.org/2000/svg" width="80" height="80" viewBox="0 0 80 80">
  <defs>
    <linearGradient id="purchase_circle-a" x1=".072%" x2="99.928%" y1="52.742%" y2="47.262%">
      <stop offset="0%" stop-color="#005BFA"/>
      <stop offset="26%" stop-color="#007EF8"/>
      <stop offset="49%" stop-color="#0095F7"/>
      <stop offset="63%" stop-color="#009EF6"/>
      <stop offset="78%" stop-color="#00B9F3"/>
      <stop offset="100%" stop-color="#00E7EE"/>
    </linearGradient>
  </defs>
  <g fill="none">
    <circle cx="39.882" cy="39.882" r="39.882" fill="url(#purchase_circle-a)"/>
    <path fill="#FFF" d="M27.1831224,63.9594937 C25.6148199,64.0000011 24.117214,63.3073584 23.1324895,62.0860759 C22.1196354,60.7247235 21.7920135,58.9720087 22.2447257,57.3367089 C22.7331372,55.4518163 23.8894884,53.8084541 25.4987342,52.7122363 L26.6666667,23.628692 L21.8092827,23.628692 C20.9097744,23.6517067 20.0514525,23.2519062 19.4902954,22.5485232 C18.9232131,21.7966477 18.7328169,20.8260003 18.9738397,19.9156118 L19.4227848,18.0691983 C19.8784995,16.3112762 21.4294854,15.0576083 23.2438819,14.9805907 L33.2185654,14.9603376 C33.8560525,14.946005 34.4704562,15.1990648 34.912928,15.6582095 C35.3553998,16.1173542 35.5855711,16.7406939 35.5476793,17.3772152 L35.4160338,20.8742616 L68.3443038,20.8135021 C69.5009802,20.7714264 70.5945745,21.3406595 71.2236287,22.3122363 C71.8918296,23.4520966 71.9237428,24.8562759 71.3080169,26.0253165 L62.5316456,43.014346 C61.8074641,44.5330781 60.3037858,45.5277392 58.6227848,45.6 L34.4303797,45.6371308 L34.4303797,47.1223629 L58.2177215,47.078481 C59.0011372,47.0610807 59.7354105,47.4590261 60.1485232,48.1248945 C60.5808608,48.8663854 60.5962059,49.7794207 60.1890295,50.5350211 L59.07173,52.7729958 C60.3172996,54.035443 60.7966245,55.9561181 60.3206751,57.9206751 C59.5172996,61.2185654 56.2160338,63.9054852 52.9620253,63.9122363 C51.3846153,63.9562366 49.8768775,63.2622777 48.8843882,62.035443 C47.8742334,60.6741487 47.5479575,58.9232178 48,57.2894515 C48.1492895,56.6811991 48.3761858,56.0946722 48.6751055,55.5443038 L34.6936709,55.571308 C34.8103936,56.3704374 34.7691066,57.1847079 34.5721519,57.9679325 C33.7721519,61.2658228 30.4708861,63.9527426 27.2168776,63.9594937 L27.1831224,63.9594937 Z M28.3308017,54.221097 L27.4902954,54.6835443 C26.2162431,55.3835801 25.2816467,56.5716263 24.9012658,57.9746835 C24.6465621,58.7894519 24.7850187,59.6763223 25.2759494,60.3746835 C25.7497553,60.9302079 26.4537686,61.2354879 27.1831224,61.2016878 C29.2084388,61.2016878 31.3721519,59.4160338 31.8852321,57.3097046 C32.1220078,56.5258516 32.0048936,55.6776982 31.564557,54.9873418 L30.0185654,52.8236287 L55.3181435,52.7763713 L52.4084388,55.2101266 C51.5528786,55.9029724 50.9375003,56.8478911 50.649789,57.9105485 C50.3965853,58.7258729 50.5362584,59.6125475 51.0278481,60.3105485 C51.5016541,60.8660728 52.2056673,61.1713529 52.9350211,61.1375527 C54.9603376,61.1375527 57.1206751,59.3518987 57.6337553,57.2421941 C57.9443038,55.9628692 57.5662447,54.8489451 56.6481013,54.3324895 L55.9898734,53.9611814 L57.4683544,49.7991561 L31.5746835,49.8464135 L31.7873418,42.8691983 L58.6160338,42.8185654 C59.2383972,42.7550585 59.78238,42.3710707 60.0506329,41.8059072 L68.8270042,24.8168776 C69.0231023,24.4978353 69.0496119,24.1027161 68.8978903,23.7603376 C68.7731545,23.5965918 68.5729125,23.5085873 68.3679325,23.5274262 L32.5873418,23.5949367 L32.8101266,17.6776371 L23.2708861,17.6776371 C22.7164128,17.7516189 22.2602327,18.1506103 22.1130802,18.6902954 L21.664135,20.5333333 C21.6270504,20.631204 21.6270504,20.7392602 21.664135,20.8371308 C21.7112603,20.8639002 21.7654236,20.8756748 21.8194093,20.8708861 L29.5493671,20.8708861 L28.2329114,53.1881857 L28.3308017,54.221097 Z"/>
    <polygon fill="#FFF" points="13.381 31.288 13.381 28.54 26.744 28.54 26.63 31.288"/>
    <polygon fill="#FFF" points="11.014 35.419 11.014 32.675 26.626 32.675 26.511 35.419"/>
    <polygon fill="#FFF" points="8.645 39.554 8.645 36.807 26.515 36.807 26.386 39.554"/>
    <polygon fill="#FFF" points="6.275 43.686 6.275 40.942 26.383 40.942 26.272 43.686"/>
    <polygon fill="#FFF" points="3.905 47.821 3.905 45.073 26.265 45.073 26.15 47.821"/>
  </g>
</svg>
