<svg xmlns="http://www.w3.org/2000/svg" width="269" height="79" viewBox="0 0 269 79">
  <g fill="none" fill-rule="evenodd">
    <path fill="#FFF" d="M166.053632,0 L134.732519,78.1418873 L118.321113,78.1418873 L87,0 L101.587916,0 C103.16113,0 104.430409,0.366481965 105.395791,1.09945689 C106.361173,1.83243182 107.094136,2.77098319 107.594705,3.91513917 L122.718941,45.7481331 C123.434038,47.5716317 124.131248,49.564936 124.810591,51.7281059 C125.489933,53.8912758 126.133511,56.1527377 126.741344,58.5125594 C127.241912,56.1527377 127.805043,53.8912758 128.430754,51.7281059 C129.056464,49.564936 129.726858,47.5716317 130.441955,45.7481331 L145.458927,3.91513917 C145.852231,2.91400269 146.558379,2.01120565 147.577393,1.20672098 C148.596407,0.402236303 149.856747,0 151.358452,0 L166.053632,0 Z M204.186015,63.8221317 C206.617346,63.8221317 208.789422,63.4198954 210.702308,62.6154107 C212.615194,61.8109261 214.233078,60.6578486 215.556008,59.1561439 C216.878938,57.6544392 217.888999,55.8220294 218.586219,53.6588595 C219.283439,51.4956896 219.632043,49.0375788 219.632043,46.2844535 L219.632043,0 L237.759674,0 L237.759674,46.2844535 C237.759674,51.0756067 236.982017,55.4733903 235.42668,59.4779362 C233.871343,63.4824821 231.645636,66.9327757 228.749491,69.8289206 C225.853346,72.7250654 222.331544,74.9775887 218.183978,76.586558 C214.036413,78.1955274 209.370472,79 204.186015,79 C198.965803,79 194.281985,78.1955274 190.13442,76.586558 C185.986854,74.9775887 182.465052,72.7250654 179.568907,69.8289206 C176.672762,66.9327757 174.455993,63.4824821 172.918534,59.4779362 C171.381074,55.4733903 170.612356,51.0756067 170.612356,46.2844535 L170.612356,0 L188.739986,0 L188.739986,46.2308215 C188.739986,48.9839468 189.088591,51.4420575 189.785811,53.6052274 C190.483031,55.7683973 191.493091,57.6097457 192.816022,59.1293279 C194.138952,60.6489101 195.756836,61.8109261 197.669722,62.6154107 C199.582607,63.4198954 201.754683,63.8221317 204.186015,63.8221317 Z M268.801901,78.1418873 L250.567006,78.1418873 L250.567006,0 L268.801901,0 L268.801901,78.1418873 Z"/>
    <circle cx="19.5" cy="16.5" r="4.5" fill="#0288F6"/>
    <circle cx="50.5" cy="4.5" r="4.5" fill="#00C2F1"/>
    <path fill="#0065F9" d="M4.5,36 L4.5,36 C6.98528137,36 9,38.0147186 9,40.5 L9,49.5 C9,51.9852814 6.98528137,54 4.5,54 L4.5,54 C2.01471863,54 3.04359188e-16,51.9852814 0,49.5 L0,40.5 C-3.04359188e-16,38.0147186 2.01471863,36 4.5,36 Z"/>
    <path fill="#0288F6" d="M19.5,25 L19.5,25 C21.9852814,25 24,27.0147186 24,29.5 L24,64.5 C24,66.9852814 21.9852814,69 19.5,69 L19.5,69 C17.0147186,69 15,66.9852814 15,64.5 L15,29.5 C15,27.0147186 17.0147186,25 19.5,25 Z"/>
    <path fill="#00A5F4" d="M35.5,31 L35.5,31 C37.9852814,31 40,33.0147186 40,35.5 L40,57.5 C40,59.9852814 37.9852814,62 35.5,62 L35.5,62 C33.0147186,62 31,59.9852814 31,57.5 L31,35.5 C31,33.0147186 33.0147186,31 35.5,31 Z"/>
    <path fill="#00C2F1" d="M50.5,15 L50.5,15 C52.9852814,15 55,17.0147186 55,19.5 L55,74.5 C55,76.9852814 52.9852814,79 50.5,79 L50.5,79 C48.0147186,79 46,76.9852814 46,74.5 L46,19.5 C46,17.0147186 48.0147186,15 50.5,15 Z"/>
    <path fill="#00D8F0" d="M65.5,29 L65.5,29 C67.9852814,29 70,31.0147186 70,33.5 L70,59.5 C70,61.9852814 67.9852814,64 65.5,64 L65.5,64 C63.0147186,64 61,61.9852814 61,59.5 L61,33.5 C61,31.0147186 63.0147186,29 65.5,29 Z"/>
    <path fill="#00EAEE" d="M79.5,36 L79.5,36 C81.9852814,36 84,38.0147186 84,40.5 L84,49.5 C84,51.9852814 81.9852814,54 79.5,54 L79.5,54 C77.0147186,54 75,51.9852814 75,49.5 L75,40.5 C75,38.0147186 77.0147186,36 79.5,36 Z"/>
  </g>
</svg>
